<?xml version="1.0" encoding="utf-8"?>
<!-- Generator: Adobe Illustrator 17.1.0, SVG Export Plug-In . SVG Version: 6.00 Build 0)  -->
<!DOCTYPE svg PUBLIC "-//W3C//DTD SVG 1.1//EN" "http://www.w3.org/Graphics/SVG/1.1/DTD/svg11.dtd">
<svg version="1.1" id="图层_1" xmlns="http://www.w3.org/2000/svg" xmlns:xlink="http://www.w3.org/1999/xlink" x="0px" y="0px"
	 viewBox="0 0 3072 1024" enable-background="new 0 0 3072 1024" xml:space="preserve">
<rect display="none" fill="#479EA2" stroke="#FFFFFF" stroke-miterlimit="10" width="3072" height="1024"/>
<g>
	<path fill="#2A2F36" d="M236,614.294V352.183c0-5.947,6.258-9.815,11.578-7.155L488.422,465.45c2.252,1.126,4.903,1.126,7.155,0
		l240.845-120.422c5.319-2.66,11.578,1.208,11.578,7.155v262.111c0,5.947-6.258,9.815-11.578,7.155l-16-8
		c-2.71-1.355-4.422-4.125-4.422-7.155V400.183c0-5.947-6.258-9.815-11.578-7.155L495.578,497.45c-2.252,1.126-4.903,1.126-7.155,0
		L279.578,393.028c-5.319-2.66-11.578,1.208-11.578,7.155v206.111c0,3.03-1.712,5.8-4.422,7.155l-16,8
		C242.258,624.109,236,620.242,236,614.294z"/>
	<path fill="#2A2F36" d="M495.578,517.028c-2.252-1.126-4.903-1.126-7.155,0L476,523.239L250.311,636.083
		c-5.896,2.948-5.896,11.363,0,14.311L488.422,769.45c2.252,1.126,4.903,1.126,7.155,0l238.111-119.056
		c5.896-2.948,5.896-11.363,0-14.311L508.002,523.24L495.578,517.028z"/>
	<path fill="#2A2F36" d="M488.422,213.028L282.311,316.083c-5.896,2.948-5.896,11.363,0,14.311L488.422,433.45
		c2.252,1.126,4.903,1.126,7.155,0l206.111-103.056c5.896-2.948,5.896-11.363,0-14.311L495.578,213.028
		C493.326,211.902,490.674,211.902,488.422,213.028z"/>
</g>
<g>
	<path fill="#2A2F36" d="M1037.919,648.76v12.48c0,4.418-3.582,8-8,8h-24.959c-4.418,0-8-3.582-8-8v-12.48V300.605v-12.479
		c0-4.418,3.582-8,8-8h20.658c3.128,0,5.969,1.823,7.272,4.667l3.493,7.621l127.319,289.01c2.807,6.371,11.849,6.365,14.647-0.01
		l126.831-289l3.493-7.621c1.303-2.844,4.144-4.667,7.272-4.667h20.657c4.418,0,8,3.582,8,8v12.479l0.513,348.155v12.48
		c0,4.418-3.582,8-8,8h-24.96c-4.418,0-8-3.582-8-8v-12.48l-0.434-212.923c-0.018-8.653-11.849-11.121-15.326-3.198l-98.415,224.313
		l-3.493,7.621c-1.303,2.844-4.145,4.667-7.273,4.667h-16.356c-3.128,0-5.969-1.823-7.272-4.666l-3.494-7.622l-98.853-224.305
		c-3.49-7.919-15.321-5.428-15.321,3.226V648.76z"/>
	<path fill="#2A2F36" d="M1668.088,582.713h-193.463c-3.171,0-6.043,1.873-7.321,4.775l-30.602,69.464l-3.493,7.621
		c-1.303,2.844-4.145,4.667-7.273,4.667h-27.277c-5.743,0-9.615-5.872-7.353-11.151l7.508-17.521l153.599-348.155l3.493-7.621
		c1.303-2.844,4.144-4.667,7.272-4.667h16.357c3.128,0,5.969,1.823,7.272,4.667l3.493,7.621l153.598,348.155l7.509,17.521
		c2.262,5.279-1.61,11.151-7.353,11.151h-27.278c-3.128,0-5.969-1.823-7.273-4.667l-3.493-7.621l-30.602-69.464
		C1674.131,584.586,1671.259,582.713,1668.088,582.713z M1650.317,530.529l-71.639-162.618c-2.805-6.366-11.838-6.366-14.642,0
		l-71.639,162.618c-2.329,5.288,1.543,11.225,7.321,11.225h143.278C1648.774,541.754,1652.646,535.817,1650.317,530.529z"/>
	<path fill="#2A2F36" d="M1908.821,280.125h107.007h12.479c4.418,0,8,3.582,8,8v24.959c0,4.418-3.582,8-8,8h-12.479h-99.007
		c-4.418,0-8,3.582-8,8V648.76v12.48c0,4.418-3.582,8-8,8h-24.959c-4.418,0-8-3.582-8-8v-12.48V329.085c0-4.418-3.582-8-8-8
		h-100.031h-12.479c-4.418,0-8-3.582-8-8v-24.959c0-4.418,3.582-8,8-8h12.479h108.031H1908.821z"/>
	<path fill="#2A2F36" d="M2192.607,494.216l-52.512,0.646c-2.189,0.027-3.95,1.809-3.95,3.999V648.76v16.481
		c0,2.209-1.791,3.999-3.999,3.999h-32.961c-2.209,0-3.999-1.791-3.999-3.999V648.76l0.227-153.597h-0.227v-40.959h0.287
		c0.075-51.029,0.15-102.057,0.226-153.086v-16.481c0-2.209,1.791-3.999,3.999-3.999h16.48l145.406-0.512
		c87.416,0,120.83,54.271,120.318,108.542c0.481,50.998-47.569,104.665-129.844,104.416l-0.082,0.004
		c-3.32,0.168-4.997,4.077-2.833,6.599l141.187,164.484c2.226,2.594,0.384,6.604-3.035,6.604h-44.474
		c-1.19,0-2.319-0.53-3.079-1.447l-144.009-173.666C2194.965,494.733,2193.815,494.202,2192.607,494.216z M2136.146,449.902
		c0,2.228,1.821,4.026,4.049,3.999l100.398-1.234c62.408-1.334,100.863-32.255,100.352-63.999
		c0.512-41.983-22.443-67.668-79.359-67.583h-121.439c-2.209,0-3.999,1.791-3.999,3.999V449.902z"/>
	<path fill="#2A2F36" d="M2441.292,300.605v-12.479c0-4.418,3.582-8,8-8h24.959c4.418,0,8,3.582,8,8v12.479V648.76v12.48
		c0,4.418-3.582,8-8,8h-24.959c-4.418,0-8-3.582-8-8v-12.48V300.605z"/>
	<path fill="#2A2F36" d="M2672.315,422.459c3.187,4.515,9.884,4.515,13.072,0l94.327-133.63l3.753-5.317
		c1.499-2.124,3.936-3.387,6.536-3.387h30.685c6.468,0,10.262,7.278,6.559,12.581l-13.741,19.675l-106.19,150.435
		c-1.952,2.766-1.952,6.461,0,9.227l116.43,164.941l13.741,19.675c3.704,5.303-0.09,12.581-6.559,12.581h-30.685
		c-2.599,0-5.036-1.263-6.536-3.386l-3.754-5.318L2685.386,512.4c-3.187-4.515-9.884-4.515-13.071,0l-104.567,148.136l-3.753,5.317
		c-1.499,2.124-3.936,3.387-6.536,3.387h-30.685c-6.468,0-10.262-7.278-6.559-12.581l13.742-19.675l116.429-164.941
		c1.952-2.766,1.952-6.461,0-9.227l-106.19-150.435l-13.741-19.675c-3.704-5.303,0.091-12.581,6.559-12.581h30.685
		c2.599,0,5.036,1.263,6.536,3.386l3.754,5.317L2672.315,422.459z"/>
</g>
<text transform="matrix(1.5 0 0 1 801.3726 634.2383)" display="none" fill="#F2F2F2" font-family="'ArialMT'" font-size="400">ATRIX</text>
</svg>
